<svg xmlns="http://www.w3.org/2000/svg" viewBox="0 0 1200 700" role="img" aria-label="n8n workflow canvas style placeholder">
  <rect width="1200" height="700" fill="#0f172a"/>
  <text x="70" y="84" fill="#e5e7eb" font-family="Inter, Arial, sans-serif" font-size="30" font-weight="700">Workflow Canvas (Illustrative)</text>
  <g stroke="#334155" stroke-width="2" opacity="0.35">
    <path d="M0 140 H1200"/><path d="M0 220 H1200"/><path d="M0 300 H1200"/><path d="M0 380 H1200"/><path d="M0 460 H1200"/><path d="M0 540 H1200"/>
    <path d="M120 120 V700"/><path d="M240 120 V700"/><path d="M360 120 V700"/><path d="M480 120 V700"/><path d="M600 120 V700"/><path d="M720 120 V700"/><path d="M840 120 V700"/><path d="M960 120 V700"/><path d="M1080 120 V700"/>
  </g>
  <g font-family="Inter, Arial, sans-serif" fill="#e2e8f0" font-size="20">
    <rect x="120" y="260" width="170" height="86" rx="12" fill="#1f2937"/><text x="155" y="312">Trigger</text>
    <rect x="360" y="260" width="170" height="86" rx="12" fill="#1f2937"/><text x="380" y="312">Classify</text>
    <rect x="600" y="260" width="170" height="86" rx="12" fill="#0b3a4f"/><text x="640" y="312">AI Step</text>
    <rect x="840" y="260" width="170" height="86" rx="12" fill="#1f2937"/><text x="870" y="312">Review</text>
    <rect x="1020" y="420" width="130" height="86" rx="12" fill="#1f2937"/><text x="1045" y="472">Output</text>
  </g>
  <g stroke="#38bdf8" stroke-width="4" fill="none">
    <path d="M290 303 L360 303"/>
    <path d="M530 303 L600 303"/>
    <path d="M770 303 L840 303"/>
    <path d="M925 346 L1020 420"/>
  </g>
</svg>
